<?xml version="1.0" encoding="utf-8"?>
<!-- Generator: Adobe Illustrator 24.1.0, SVG Export Plug-In . SVG Version: 6.00 Build 0)  -->
<svg version="1.1" id="Layer_1" xmlns="http://www.w3.org/2000/svg" xmlns:xlink="http://www.w3.org/1999/xlink" x="0px" y="0px"
	 viewBox="0 0 339 107.3" style="enable-background:new 0 0 339 107.3;" xml:space="preserve">
<style type="text/css">
	.st0{opacity:0.45;fill-rule:evenodd;clip-rule:evenodd;fill:#FF003C;enable-background:new    ;}
	.st1{fill-rule:evenodd;clip-rule:evenodd;fill:#1E1A00;}
</style>
<g>
	<polygon class="st0" points="339,19.8 339,85 315,85 315,77 288,77 288,85 21.8,85 2,65.2 2,0 26,0 26,8 53,8 53,0 319.2,0 	"/>
	<rect x="26" y="87.5" class="st0" width="27" height="8"/>
	<polygon class="st0" points="339,87.5 339,107.3 319.2,87.5 	"/>
</g>
<g>
	<rect x="24" y="87.5" class="st1" width="27" height="8"/>
	<polygon class="st1" points="337,87.5 337,107.3 317.2,87.5 	"/>
	<polygon class="st1" points="337,19.8 337,85 313,85 313,77 286,77 286,85 19.8,85 0,65.2 0,0 24,0 24,8 51,8 51,0 317.2,0 	"/>
</g>
</svg>
