<svg xmlns="http://www.w3.org/2000/svg" viewBox="0 0 15.58 15.58"><defs><style>.cls-1{fill:#fff;}</style></defs><g id="Layer_2" data-name="Layer 2"><g id="Layer_1-2" data-name="Layer 1"><path class="cls-1" d="M5.85.9A7.16,7.16,0,1,1,.9,9.72,7.16,7.16,0,0,1,5.85.9M5.68.29A7.81,7.81,0,0,0,2.93,1.7,7.87,7.87,0,0,0,.06,6.81,7.83,7.83,0,0,0,1.7,12.65,8,8,0,0,0,4,14.58a7.68,7.68,0,0,0,2.83.93,7.47,7.47,0,0,0,3.08-.23,7.54,7.54,0,0,0,2.76-1.41,7.82,7.82,0,0,0,1.93-2.27,7.74,7.74,0,0,0,.93-2.83,7.51,7.51,0,0,0-.23-3.09,7.49,7.49,0,0,0-1.41-2.75A7.53,7.53,0,0,0,11.6,1,7.76,7.76,0,0,0,8.77.06,7.86,7.86,0,0,0,5.68.29Z"/><path class="cls-1" d="M12,5.59l0-.08a.93.93,0,0,0-.42-.64,1.2,1.2,0,0,0-.82,0l-1.54.44s.72,0,.93.45l.32,1.14,2.31-.65.41,1.49-2.3.65h0l-.74.21s.72,0,.93.45l.21.76a2.08,2.08,0,0,0,.28.67.43.43,0,0,0,.43.13l.42,1.48-2.95.83-.42-1.48a.68.68,0,0,0,.26-.24.6.6,0,0,0,0-.3,2.86,2.86,0,0,0-.12-.51L8.09,6.3a2,2,0,0,0-.26-.64.51.51,0,0,0-.45-.15L7,4.08l6.08-1.71.76,2.72Z"/><path class="cls-1" d="M3,8.13l0-.08a.9.9,0,0,1,0-.77,1.14,1.14,0,0,1,.7-.42l1.54-.43s-.63.35-.56.87L5,8.44l-2.3.65.42,1.49,2.3-.65h0l.74-.21s-.63.35-.55.88l.21.76a2.25,2.25,0,0,1,.11.71.4.4,0,0,1-.31.33l.42,1.49,3-.83-.42-1.49a.59.59,0,0,1-.34-.06.45.45,0,0,1-.2-.23,2.52,2.52,0,0,1-.17-.5L6.73,6.69A2,2,0,0,1,6.62,6q0-.21.3-.36l-.4-1.43L.44,5.92l.77,2.71Z"/></g></g></svg>