<svg xmlns="http://www.w3.org/2000/svg" viewBox="0 0 29.57 29.57"><defs><style>.cls-1{fill:#fff;}</style></defs><g id="Layer_2" data-name="Layer 2"><g id="Layer_1-2" data-name="Layer 1"><path class="cls-1" d="M11.11,1.71a13.59,13.59,0,1,1-9.4,16.75,13.59,13.59,0,0,1,9.4-16.75M10.79.56A14.51,14.51,0,0,0,5.56,3.23a14.76,14.76,0,0,0-5,15.55A14.51,14.51,0,0,0,3.23,24a14.81,14.81,0,0,0,4.32,3.67A14.79,14.79,0,0,0,27.68,22,14.76,14.76,0,0,0,22,1.9,14.71,14.71,0,0,0,10.79.56Z"/><path class="cls-1" d="M22.83,10.62l0-.15A1.79,1.79,0,0,0,22,9.25a2.23,2.23,0,0,0-1.56,0l-2.91.82s1.36-.06,1.76.86l.61,2.17,4.38-1.23.79,2.83-4.37,1.22h0l-1.41.39s1.36-.06,1.76.87l.41,1.44A3.85,3.85,0,0,0,22,19.91a.78.78,0,0,0,.82.24L23.58,23,18,24.56l-.79-2.83a1.12,1.12,0,0,0,.49-.44,1,1,0,0,0,.1-.57,6.89,6.89,0,0,0-.22-1L15.37,12a4.12,4.12,0,0,0-.5-1.23,1,1,0,0,0-.86-.28l-.76-2.71L24.79,4.51l1.45,5.15Z"/><path class="cls-1" d="M5.7,15.43l0-.15a1.77,1.77,0,0,1,0-1.46A2.21,2.21,0,0,1,7.05,13L10,12.21s-1.2.66-1.06,1.66L9.51,16,5.14,17.26l.79,2.83,4.38-1.23h0l1.41-.4s-1.19.66-1.06,1.66l.41,1.44a3.75,3.75,0,0,1,.2,1.35.79.79,0,0,1-.57.64l.79,2.83L17.1,24.8,16.31,22a1.09,1.09,0,0,1-.65-.12.89.89,0,0,1-.38-.43,6.31,6.31,0,0,1-.32-1L12.77,12.7a3.94,3.94,0,0,1-.21-1.31.94.94,0,0,1,.58-.68L12.38,8,.84,11.23l1.45,5.16Z"/></g></g></svg>